# xmcd CD database file
#
# Track frame offsets:
#	150
#	33721
#	61973
#	97844
#	120583
#	156938
#	177651
#	218608
#
# Disc length: 3320 seconds
#
# Revision: 1
# Processed by: cddbd v1.5.2PL0 Copyright (c) Steve Scherf et al.
# Submitted via: CDex 1.51
#
DISCID=690cf608
DTITLE=D¿em - D¿em W Operze 2
DYEAR=1999
DGENRE=Blues
TTITLE0=Obluda
TTITLE1=Wszystko wzielo w leb
TTITLE2=Cala W Trawie
TTITLE3=W Klatce
TTITLE4=Jesiony
TTITLE5=Czlowieku co sie z toba dzieje
TTITLE6=Ostatnie widzenie
TTITLE7=Czerwony jak cegla
EXTD=YEAR: 1999
EXTT0=
EXTT1=
EXTT2=
EXTT3=
EXTT4=
EXTT5=
EXTT6=
EXTT7=
PLAYORDER=
